<svg width="51" height="51" viewBox="0 0 51 51" fill="none" xmlns="http://www.w3.org/2000/svg">
<g clip-path="url(#clip0_2_104)">
<path d="M25.644 0V50H18.0031C18.0031 50 17.4946 48.3887 18.0031 47.9661C18.0245 47.9518 18.0532 47.9303 18.0818 47.923C18.8409 47.5722 22.7795 47.9947 23.3525 46.6914C23.9469 45.3309 23.5172 37.6896 23.4384 35.5699C23.3525 33.4503 23.0087 31.5812 22.0779 31.2374C21.1469 30.9009 15.3677 31.3233 12.6536 25.1289C9.9394 18.9272 16.5564 0 16.5564 0H25.644Z" fill="#F7F7F7"/>
<path d="M37.7824 25.1289C35.0683 31.3233 29.2963 30.9009 28.3653 31.2374C27.4272 31.5812 27.0907 33.4502 27.0047 35.5699C26.9188 37.6897 26.4962 45.3309 27.0907 46.6914C27.685 48.0521 31.9246 47.5364 32.4401 47.9661C32.9486 48.3887 32.4401 50 32.4401 50H24.799V0H33.8795C33.8795 0 34.2303 0.99541 34.7317 2.59951C36.4217 8.00625 39.8806 20.3452 37.7824 25.1289Z" fill="#E3E2E2"/>
<path opacity="0.77" d="M25.2223 0.845435V30.2281H21.5844C19.608 29.9774 15.8554 29.3544 13.8575 24.7855C12.8191 22.4222 13.1628 17.4595 14.8385 10.4342C15.8698 6.12307 17.123 2.26331 17.5956 0.845337L25.2223 0.845435Z" fill="white"/>
<path opacity="0.77" d="M36.58 24.7855C34.5821 29.3543 30.8295 29.9774 28.8602 30.2281H25.2223V0.845459H32.8491C33.3217 2.26343 34.5678 6.12319 35.599 10.4343C37.2819 17.4595 37.6184 22.4222 36.58 24.7855Z" fill="white"/>
<path d="M36.0142 24.6871C34.0382 29.1931 30.2776 29.6616 28.4702 29.8867C28.0395 29.9407 27.0544 30.1544 25.3634 30.1544C23.5058 30.1544 22.3754 29.9375 21.9689 29.8867C20.1615 29.6616 16.4007 29.1931 14.4248 24.6871C13.7796 23.2145 13.6965 20.6796 14.1659 17.2262C14.2635 17.231 14.3659 17.2334 14.4716 17.2334C17.2871 17.2334 17.2871 15.4591 20.1034 15.4591C22.9189 15.4591 22.9189 17.2334 25.7344 17.2334C28.5507 17.2334 28.5507 15.4591 31.3663 15.4591C33.9156 15.4591 34.1576 16.9124 36.2681 17.1891C36.7433 20.6612 36.6619 23.2089 36.0142 24.6871Z" fill="#DAB2B2"/>
<path d="M36.0142 24.6871C34.0382 29.1931 30.2776 29.6616 28.4702 29.8867C28.0395 29.9407 27.0539 30.1544 25.3634 30.1544C25.3151 30.1544 25.2666 30.1544 25.2191 30.1536V17.2116C25.3803 17.2262 25.5514 17.2334 25.7344 17.2334C28.5507 17.2334 28.5507 15.4591 31.3663 15.4591C33.9156 15.4591 34.1576 16.9124 36.2682 17.1891C36.7433 20.6612 36.6619 23.2089 36.0142 24.6871Z" fill="#E69696"/>
</g>
<defs>
<clipPath id="clip0_2_104">
<rect width="50" height="50" fill="white" transform="translate(0.5 0.5)"/>
</clipPath>
</defs>
</svg>
