<svg width="52" height="52" viewBox="0 0 52 52" fill="none" xmlns="http://www.w3.org/2000/svg">
<path d="M26.644 1V51H19.0031C19.0031 51 18.4946 49.3887 19.0031 48.9661C19.0245 48.9518 19.0532 48.9303 19.0818 48.923C19.8409 48.5722 23.7795 48.9947 24.3525 47.6914C24.9469 46.3309 24.5172 38.6896 24.4384 36.5699C24.3525 34.4503 24.0087 32.5812 23.0779 32.2374C22.1469 31.9009 16.3677 32.3233 13.6536 26.1289C10.9394 19.9272 17.5564 1 17.5564 1H26.644Z" fill="#F7F7F7"/>
<path d="M38.7824 26.1289C36.0683 32.3233 30.2963 31.9009 29.3653 32.2374C28.4272 32.5812 28.0907 34.4502 28.0047 36.5699C27.9188 38.6897 27.4962 46.3309 28.0907 47.6914C28.685 49.0521 32.9246 48.5364 33.4401 48.9661C33.9486 49.3887 33.4401 51 33.4401 51H25.799V1H34.8795C34.8795 1 35.2303 1.99541 35.7317 3.59951C37.4217 9.00625 40.8806 21.3452 38.7824 26.1289Z" fill="#E3E2E2"/>
<path opacity="0.77" d="M26.2223 1.84543V31.2281H22.5844C20.608 30.9774 16.8554 30.3544 14.8575 25.7855C13.8191 23.4222 14.1628 18.4595 15.8385 11.4342C16.8698 7.12307 18.123 3.26331 18.5956 1.84534L26.2223 1.84543Z" fill="white"/>
<path opacity="0.77" d="M37.58 25.7855C35.5821 30.3543 31.8295 30.9774 29.8602 31.2281H26.2223V1.84546H33.8491C34.3217 3.26343 35.5678 7.12319 36.599 11.4343C38.2819 18.4595 38.6184 23.4222 37.58 25.7855Z" fill="white"/>
<path d="M37.0142 25.6871C35.0382 30.1931 31.2776 30.6616 29.4702 30.8867C29.0395 30.9407 28.0544 31.1544 26.3634 31.1544C24.5058 31.1544 23.3754 30.9375 22.9689 30.8867C21.1615 30.6616 17.4007 30.1931 15.4248 25.6871C14.7796 24.2145 14.6965 21.6796 15.1659 18.2262C15.2635 18.231 15.3659 18.2334 15.4716 18.2334C18.2871 18.2334 18.2871 16.4591 21.1034 16.4591C23.9189 16.4591 23.9189 18.2334 26.7344 18.2334C29.5507 18.2334 29.5507 16.4591 32.3663 16.4591C34.9156 16.4591 35.1576 17.9124 37.2681 18.1891C37.7433 21.6612 37.6619 24.2089 37.0142 25.6871Z" fill="#C9C099"/>
<path d="M37.0142 25.6871C35.0382 30.1931 31.2776 30.6616 29.4702 30.8867C29.0395 30.9407 28.0539 31.1544 26.3634 31.1544C26.3151 31.1544 26.2666 31.1544 26.2191 31.1536V18.2116C26.3803 18.2262 26.5514 18.2334 26.7344 18.2334C29.5507 18.2334 29.5507 16.4591 32.3663 16.4591C34.9156 16.4591 35.1576 17.9124 37.2682 18.1891C37.7433 21.6612 37.6619 24.2089 37.0142 25.6871Z" fill="#948B73"/>
</svg>
