<svg width="117" height="30" viewBox="0 0 117 30" fill="none" xmlns="http://www.w3.org/2000/svg">
<g clip-path="url(#clip0_1_2)">
<path d="M17.6768 6.353V6.908C17.3253 6.982 16.946 7.19475 16.539 7.54625C16.1505 7.89775 15.799 8.48975 15.4845 9.32225L8.96325 26.1388C8.92625 26.1388 8.88925 26.1388 8.85225 26.1388C8.81525 26.1388 8.77825 26.1388 8.74125 26.1388C8.70425 26.1388 8.66725 26.1388 8.63025 26.1388C8.59325 26.1388 8.55625 26.1388 8.51925 26.1388L1.74825 8.684C1.47075 7.981 1.15625 7.5185 0.80475 7.2965C0.45325 7.056 0.1295 6.9265 -0.1665 6.908V6.353C0.2035 6.3715 0.65675 6.39 1.19325 6.4085C1.74825 6.427 2.28475 6.43625 2.80275 6.43625C3.52425 6.43625 4.1995 6.427 4.8285 6.4085C5.4575 6.39 5.96625 6.3715 6.35475 6.353V6.908C5.72575 6.9265 5.24475 7.0005 4.91175 7.13C4.59725 7.2595 4.4215 7.49075 4.3845 7.82375C4.366 8.13825 4.477 8.61 4.7175 9.239L9.879 22.9197L9.435 23.3915L14.2635 10.8485C14.652 9.8495 14.837 9.0725 14.8185 8.5175C14.8 7.944 14.5873 7.537 14.1803 7.2965C13.7733 7.056 13.1813 6.9265 12.4043 6.908V6.353C12.9408 6.3715 13.4865 6.39 14.0415 6.4085C14.5965 6.427 15.1145 6.43625 15.5955 6.43625C16.0765 6.43625 16.4743 6.427 16.7888 6.4085C17.1033 6.39 17.3993 6.3715 17.6768 6.353ZM20.6616 4.77125C21.1426 4.77125 21.5589 4.947 21.9104 5.2985C22.2619 5.65 22.4376 6.06625 22.4376 6.54725C22.4376 7.02825 22.2619 7.4445 21.9104 7.796C21.5589 8.1475 21.1426 8.32325 20.6616 8.32325C20.1806 8.32325 19.7644 8.1475 19.4129 7.796C19.0614 7.4445 18.8856 7.02825 18.8856 6.54725C18.8856 6.06625 19.0614 5.65 19.4129 5.2985C19.7644 4.947 20.1806 4.77125 20.6616 4.77125ZM22.1046 11.4035V23.4192C22.1046 24.1962 22.2619 24.7235 22.5764 25.001C22.9094 25.2785 23.4551 25.4172 24.2136 25.4172V26C23.8991 25.9815 23.4181 25.963 22.7706 25.9445C22.1416 25.9075 21.5034 25.889 20.8559 25.889C20.2269 25.889 19.5886 25.9075 18.9411 25.9445C18.2936 25.963 17.8126 25.9815 17.4981 26V25.4172C18.2566 25.4172 18.7931 25.2785 19.1076 25.001C19.4406 24.7235 19.6071 24.1962 19.6071 23.4192V14.7335C19.6071 13.901 19.4591 13.2905 19.1631 12.902C18.8671 12.495 18.3121 12.2915 17.4981 12.2915V11.7087C18.0901 11.7642 18.6636 11.792 19.2186 11.792C19.7551 11.792 20.2639 11.7642 20.7449 11.7087C21.2444 11.6347 21.6976 11.533 22.1046 11.4035ZM34.952 11.3202C35.655 11.3202 36.2377 11.4127 36.7002 11.5977C37.1812 11.7827 37.579 12.0417 37.8935 12.3747C38.245 12.7447 38.4947 13.2072 38.6427 13.7622C38.7907 14.3172 38.8647 15.0665 38.8647 16.01V23.4192C38.8647 24.1962 39.022 24.7235 39.3365 25.001C39.6695 25.2785 40.2152 25.4172 40.9737 25.4172V26C40.6592 25.9815 40.1782 25.963 39.5307 25.9445C38.8832 25.9075 38.2542 25.889 37.6437 25.889C37.0332 25.889 36.432 25.9075 35.84 25.9445C35.2665 25.963 34.8317 25.9815 34.5357 26V25.4172C35.2017 25.4172 35.6735 25.2785 35.951 25.001C36.2285 24.7235 36.3672 24.1962 36.3672 23.4192V15.3995C36.3672 14.826 36.321 14.2987 36.2285 13.8177C36.136 13.3367 35.9232 12.9482 35.5902 12.6522C35.2757 12.3562 34.7855 12.2082 34.1195 12.2082C33.3425 12.2082 32.658 12.4302 32.066 12.8742C31.4925 13.3182 31.0392 13.9287 30.7062 14.7057C30.3917 15.4642 30.2345 16.3152 30.2345 17.2587V23.4192C30.2345 24.1962 30.3732 24.7235 30.6507 25.001C30.9282 25.2785 31.4 25.4172 32.066 25.4172V26C31.77 25.9815 31.326 25.963 30.734 25.9445C30.1605 25.9075 29.5685 25.889 28.958 25.889C28.3475 25.889 27.7185 25.9075 27.071 25.9445C26.4235 25.963 25.9425 25.9815 25.628 26V25.4172C26.3865 25.4172 26.923 25.2785 27.2375 25.001C27.5705 24.7235 27.737 24.1962 27.737 23.4192V14.7335C27.737 13.901 27.589 13.2905 27.293 12.902C26.997 12.495 26.442 12.2915 25.628 12.2915V11.7087C26.22 11.7642 26.7935 11.792 27.3485 11.792C27.885 11.792 28.3937 11.7642 28.8747 11.7087C29.3742 11.6347 29.8275 11.533 30.2345 11.4035V14.678C30.7155 13.42 31.3815 12.5505 32.2325 12.0695C33.102 11.57 34.0085 11.3202 34.952 11.3202ZM48.9846 11.3202C50.1686 11.3202 51.2324 11.5792 52.1759 12.0972C53.1194 12.6152 53.8686 13.4292 54.4236 14.5392C54.9971 15.6492 55.2839 17.0922 55.2839 18.8683C55.2839 20.6442 54.9971 22.0872 54.4236 23.1972C53.8686 24.2887 53.1194 25.0935 52.1759 25.6115C51.2324 26.1295 50.1686 26.3885 48.9846 26.3885C47.8191 26.3885 46.7554 26.1295 45.7934 25.6115C44.8499 25.0935 44.0914 24.2887 43.5179 23.1972C42.9629 22.0872 42.6854 20.6442 42.6854 18.8683C42.6854 17.0922 42.9629 15.6492 43.5179 14.5392C44.0914 13.4292 44.8499 12.6152 45.7934 12.0972C46.7554 11.5792 47.8191 11.3202 48.9846 11.3202ZM48.9846 11.8752C47.9301 11.8752 47.0606 12.421 46.3761 13.5125C45.7101 14.604 45.3771 16.3892 45.3771 18.8683C45.3771 21.3472 45.7101 23.1325 46.3761 24.224C47.0606 25.297 47.9301 25.8335 48.9846 25.8335C50.0391 25.8335 50.8994 25.297 51.5654 24.224C52.2499 23.1325 52.5921 21.3472 52.5921 18.8683C52.5921 16.3892 52.2499 14.604 51.5654 13.5125C50.8994 12.421 50.0391 11.8752 48.9846 11.8752Z" fill="#A67C52"/>
<path d="M57.2617 6.353C57.6502 6.3715 58.1589 6.39 58.7879 6.4085C59.4169 6.427 60.0367 6.43625 60.6472 6.43625C61.5167 6.43625 62.3492 6.427 63.1447 6.4085C63.9402 6.39 64.5044 6.38075 64.8374 6.38075C66.7799 6.38075 68.2414 6.78775 69.2219 7.60175C70.2024 8.41575 70.6927 9.461 70.6927 10.7375C70.6927 11.385 70.5539 12.0232 70.2764 12.6522C70.0174 13.2627 69.5734 13.827 68.9444 14.345C68.3339 14.8445 67.5107 15.2515 66.4747 15.566V15.6215C67.9362 15.8065 69.0739 16.158 69.8879 16.676C70.7204 17.1755 71.3032 17.7675 71.6362 18.452C71.9692 19.1365 72.1357 19.858 72.1357 20.6165C72.1357 21.671 71.8674 22.6052 71.3309 23.4192C70.8129 24.2147 70.0544 24.8437 69.0554 25.3062C68.0564 25.7687 66.8632 26 65.4757 26C65.0687 26 64.4582 25.9907 63.6442 25.9722C62.8302 25.9352 61.8497 25.9167 60.7027 25.9167C60.0552 25.9167 59.4169 25.926 58.7879 25.9445C58.1589 25.9445 57.6502 25.963 57.2617 26V25.445C57.8907 25.408 58.3624 25.334 58.6769 25.223C59.0099 25.112 59.2319 24.89 59.3429 24.557C59.4539 24.224 59.5094 23.7245 59.5094 23.0585V9.2945C59.5094 8.61 59.4539 8.1105 59.3429 7.796C59.2319 7.463 59.0099 7.241 58.6769 7.13C58.3624 7.0005 57.8907 6.9265 57.2617 6.908V6.353ZM64.1437 6.908C63.2927 6.908 62.7377 7.06525 62.4787 7.37975C62.2197 7.69425 62.0902 8.3325 62.0902 9.2945V23.0585C62.0902 23.706 62.1457 24.1962 62.2567 24.5292C62.3677 24.8622 62.5712 25.0842 62.8672 25.1952C63.1632 25.3062 63.5979 25.3617 64.1714 25.3617C65.9844 25.3617 67.2979 24.9455 68.1119 24.113C68.9444 23.262 69.3607 22.0595 69.3607 20.5055C69.3607 19.081 68.9722 17.9802 68.1952 17.2032C67.4367 16.4262 66.1787 16.0377 64.4212 16.0377H61.5629C61.5629 16.0377 61.5629 15.9637 61.5629 15.8157C61.5629 15.6492 61.5629 15.566 61.5629 15.566H63.9494C65.0409 15.566 65.8827 15.3625 66.4747 14.9555C67.0667 14.53 67.4737 13.975 67.6957 13.2905C67.9177 12.5875 68.0287 11.8382 68.0287 11.0427C68.0287 9.67375 67.7234 8.647 67.1129 7.9625C66.5209 7.2595 65.5312 6.908 64.1437 6.908ZM80.9337 11.3202C82.5617 11.3202 83.829 11.8197 84.7355 12.8187C85.6605 13.7992 86.123 15.3347 86.123 17.4252H76.3272L76.2995 16.898H83.459C83.496 15.9915 83.422 15.159 83.237 14.4005C83.052 13.6235 82.756 13.0037 82.349 12.5412C81.9605 12.0787 81.4517 11.8475 80.8227 11.8475C79.9717 11.8475 79.2132 12.273 78.5472 13.124C77.8997 13.975 77.5112 15.3255 77.3817 17.1755L77.465 17.2865C77.428 17.564 77.4002 17.8692 77.3817 18.2022C77.3632 18.5352 77.354 18.8682 77.354 19.2012C77.354 20.4592 77.5575 21.5415 77.9645 22.448C78.3715 23.3545 78.8987 24.0482 79.5462 24.5292C80.2122 24.9917 80.8967 25.223 81.5997 25.223C82.1547 25.223 82.682 25.1397 83.1815 24.9732C83.681 24.7882 84.1435 24.4922 84.569 24.0852C84.9945 23.6782 85.3645 23.1325 85.679 22.448L86.234 22.67C86.0305 23.2805 85.6975 23.8725 85.235 24.446C84.7725 25.0195 84.1897 25.4912 83.4867 25.8612C82.7837 26.2128 81.9697 26.3885 81.0447 26.3885C79.7127 26.3885 78.5657 26.0832 77.6037 25.4727C76.6602 24.8622 75.9295 24.0205 75.4115 22.9475C74.912 21.856 74.6622 20.6072 74.6622 19.2012C74.6622 17.5732 74.9212 16.1765 75.4392 15.011C75.9572 13.827 76.688 12.9205 77.6315 12.2915C78.575 11.644 79.6757 11.3202 80.9337 11.3202ZM92.6403 4.244V23.4192C92.6403 24.1962 92.7976 24.7235 93.1121 25.001C93.4451 25.2785 93.9908 25.4172 94.7493 25.4172V26C94.4348 25.9815 93.9538 25.963 93.3063 25.9445C92.6773 25.9075 92.0391 25.889 91.3916 25.889C90.7626 25.889 90.1243 25.9075 89.4768 25.9445C88.8293 25.963 88.3483 25.9815 88.0338 26V25.4172C88.7923 25.4172 89.3288 25.2785 89.6433 25.001C89.9763 24.7235 90.1428 24.1962 90.1428 23.4192V7.574C90.1428 6.7415 89.9948 6.131 89.6988 5.7425C89.4028 5.3355 88.8478 5.132 88.0338 5.132V4.54925C88.6258 4.60475 89.1993 4.6325 89.7543 4.6325C90.2908 4.6325 90.7996 4.60475 91.2806 4.54925C91.7801 4.47525 92.2333 4.3735 92.6403 4.244ZM100.581 4.244V23.4192C100.581 24.1962 100.738 24.7235 101.052 25.001C101.385 25.2785 101.931 25.4172 102.69 25.4172V26C102.375 25.9815 101.894 25.963 101.247 25.9445C100.618 25.9075 99.9793 25.889 99.3318 25.889C98.7028 25.889 98.0645 25.9075 97.417 25.9445C96.7695 25.963 96.2885 25.9815 95.974 26V25.4172C96.7325 25.4172 97.269 25.2785 97.5835 25.001C97.9165 24.7235 98.083 24.1962 98.083 23.4192V7.574C98.083 6.7415 97.935 6.131 97.639 5.7425C97.343 5.3355 96.788 5.132 95.974 5.132V4.54925C96.566 4.60475 97.1395 4.6325 97.6945 4.6325C98.231 4.6325 98.7398 4.60475 99.2208 4.54925C99.7203 4.47525 100.174 4.3735 100.581 4.244ZM108.049 26.1943C107.29 26.1943 106.634 26.0555 106.079 25.778C105.524 25.482 105.098 25.075 104.802 24.557C104.525 24.039 104.386 23.4377 104.386 22.7532C104.386 21.9392 104.571 21.2732 104.941 20.7552C105.329 20.2372 105.82 19.821 106.412 19.5065C107.004 19.192 107.623 18.933 108.271 18.7295C108.937 18.5075 109.566 18.304 110.158 18.119C110.75 17.9155 111.231 17.6842 111.601 17.4252C111.989 17.1662 112.184 16.824 112.184 16.3985V14.678C112.184 13.901 112.063 13.309 111.823 12.902C111.601 12.495 111.296 12.2267 110.907 12.0972C110.519 11.9492 110.084 11.8752 109.603 11.8752C109.14 11.8752 108.641 11.94 108.104 12.0695C107.586 12.199 107.17 12.4672 106.856 12.8742C107.207 12.9482 107.512 13.1332 107.771 13.4292C108.03 13.7252 108.16 14.1045 108.16 14.567C108.16 15.0295 108.012 15.3995 107.716 15.677C107.42 15.936 107.041 16.0655 106.578 16.0655C106.042 16.0655 105.644 15.899 105.385 15.566C105.144 15.2145 105.024 14.826 105.024 14.4005C105.024 13.9195 105.144 13.531 105.385 13.235C105.625 12.939 105.931 12.6615 106.301 12.4025C106.726 12.1065 107.272 11.8567 107.938 11.6532C108.622 11.4312 109.39 11.3202 110.241 11.3202C111 11.3202 111.647 11.4127 112.184 11.5977C112.72 11.7642 113.164 12.014 113.516 12.347C113.997 12.791 114.311 13.3367 114.459 13.9842C114.607 14.6132 114.681 15.3717 114.681 16.2597V23.9742C114.681 24.4367 114.746 24.7697 114.875 24.9732C115.023 25.1767 115.245 25.2785 115.541 25.2785C115.745 25.2785 115.939 25.2322 116.124 25.1397C116.309 25.0472 116.531 24.8992 116.79 24.6957L117.095 25.1675C116.707 25.4635 116.337 25.7132 115.985 25.9167C115.634 26.1018 115.162 26.1943 114.57 26.1943C114.034 26.1943 113.59 26.1018 113.238 25.9167C112.887 25.7317 112.618 25.4635 112.433 25.112C112.267 24.742 112.184 24.2795 112.184 23.7245C111.684 24.557 111.083 25.1767 110.38 25.5837C109.695 25.9907 108.918 26.1943 108.049 26.1943ZM109.048 25.0843C109.658 25.0843 110.223 24.9085 110.741 24.557C111.277 24.2055 111.758 23.6782 112.184 22.9752V17.5362C111.962 17.8507 111.638 18.119 111.212 18.341C110.787 18.5445 110.324 18.7572 109.825 18.9792C109.325 19.1827 108.844 19.4325 108.382 19.7285C107.938 20.006 107.568 20.376 107.272 20.8385C106.976 21.301 106.828 21.9022 106.828 22.6422C106.828 23.3822 107.022 23.9742 107.411 24.4182C107.818 24.8622 108.363 25.0843 109.048 25.0843Z" fill="white"/>
</g>
<defs>
<clipPath id="clip0_1_2">
<rect width="117" height="30" fill="white"/>
</clipPath>
</defs>
</svg>
