<svg width="169" height="26" viewBox="0 0 169 26" fill="none" xmlns="http://www.w3.org/2000/svg">
<g clip-path="url(#clip0_2_32)">
<path d="M1 12.4375H61" stroke="#A67C52" stroke-width="0.975064" stroke-miterlimit="10" stroke-linecap="round"/>
<path d="M167.996 12.3828H107.996" stroke="#A67C52" stroke-width="0.975064" stroke-miterlimit="10" stroke-linecap="round"/>
<path d="M87.0425 11.4591C86.9884 10.8431 87.0639 10.8926 87.385 10.4171C87.8073 9.79164 88.5886 8.72128 89.3993 8.65039C90.4427 8.55872 90.4162 8.706 91.3273 9.20436C91.6439 9.37792 92.1746 10.6243 92.2079 11.0071C92.269 11.687 91.8868 12.3054 91.4978 12.8041C91.07 13.352 90.598 13.7513 89.8512 13.8158C89.3852 13.8608 88.9176 13.7491 88.5223 13.4983C87.7948 13.0941 87.1204 12.3504 87.0425 11.4591Z" fill="#A67C52"/>
<path d="M81.7133 12.6113C81.6592 11.9953 81.7344 12.0448 82.0559 11.5694C82.4781 10.9439 83.2594 9.87353 84.0701 9.80264C85.1135 9.71097 85.087 9.85825 85.9981 10.3569C86.3147 10.5302 86.8451 11.7765 86.8787 12.1597C86.938 12.8396 86.5573 13.458 86.1683 13.9567C85.7405 14.5048 85.2685 14.9039 84.5217 14.9684C84.0557 15.0135 83.5881 14.9018 83.1928 14.6509C82.4653 14.2463 81.7912 13.5026 81.7133 12.6113Z" fill="#A67C52"/>
<path d="M83.5158 21.1418C83.4687 20.6068 83.5341 20.6496 83.8131 20.2368C84.1798 19.6938 84.8584 18.7643 85.5624 18.7029C86.4687 18.6234 86.4455 18.7511 87.2369 19.1841C87.5119 19.3348 87.9726 20.417 88.0007 20.7495C88.0524 21.3398 87.7215 21.877 87.3838 22.3103C87.0135 22.786 86.6025 23.1319 85.9538 23.1887C85.5492 23.228 85.1431 23.1313 84.7997 22.9137C84.1685 22.5611 83.5833 21.9161 83.5158 21.1418Z" fill="#A67C52"/>
<path d="M80.921 11.4062C81.3946 11.8034 81.3066 11.8224 81.4157 12.3855C81.5593 13.1262 81.7638 14.4358 81.2406 15.0591C80.5684 15.8612 80.4816 15.739 79.4852 16.0305C79.139 16.1319 77.8826 15.6256 77.588 15.3784C77.0652 14.94 76.8972 14.2332 76.8196 13.6062C76.734 12.9166 76.7866 12.3009 77.2684 11.7267C77.5659 11.3652 77.9756 11.1133 78.4326 11.0111C79.2331 10.7826 80.2357 10.8324 80.921 11.4062Z" fill="#A67C52"/>
<path d="M85.2941 17.2001C85.3482 17.8164 85.2731 17.7669 84.9516 18.2424C84.5293 18.8678 83.748 19.9382 82.9374 20.0088C81.8939 20.1005 81.9205 19.9532 81.0093 19.4548C80.6928 19.2816 80.1623 18.0352 80.1287 17.652C80.0694 16.9722 80.4499 16.3534 80.8391 15.8548C81.2669 15.3069 81.7387 14.9075 82.4855 14.8434C82.9515 14.7983 83.4192 14.9099 83.8146 15.1605C84.5422 15.5639 85.2162 16.3085 85.2941 17.2001Z" fill="#A67C52"/>
<path d="M89.7076 14.4312C90.1812 14.8284 90.0929 14.8471 90.202 15.409C90.3456 16.1496 90.55 17.4592 90.0272 18.0826C89.355 18.8847 89.2679 18.7624 88.2718 19.0539C87.9256 19.1554 86.6691 18.6494 86.3746 18.4022C85.8518 17.9634 85.6837 17.2567 85.6058 16.63C85.5206 15.9403 85.5731 15.3246 86.055 14.7505C86.3528 14.3895 86.7624 14.1381 87.2191 14.0361C88.0194 13.8073 89.0219 13.8571 89.7076 14.4312Z" fill="#A67C52"/>
<path d="M84.4398 9.21628C83.8993 7.85167 84.1064 5.70667 84.4398 4.31914C84.7839 2.88303 85.4399 1.62689 86.1974 0.361888C86.1683 -0.14625 85.8133 -0.39925 85.5756 -0.00141715C84.7708 1.39889 84.1641 2.90403 83.7728 4.471C83.6695 5.04593 83.6029 5.62684 83.5733 6.21022C83.5653 6.43053 83.5647 6.66183 83.5733 6.913C83.6066 7.79196 83.7517 8.66308 84.0053 9.50533C84.0361 9.55756 84.0863 9.59554 84.1449 9.61105C84.2021 9.62297 84.2724 9.58783 84.4377 9.50533L84.4398 9.21628Z" fill="#A67C52"/>
<path d="M81.9914 5.75923L81.5593 5.18325V4.31945L81.8475 2.87875L82.4237 3.59895L82.9997 4.46306C82.9997 4.46306 83.1439 4.60728 83.1439 5.03934C83.1439 5.47139 83.2879 5.61531 83.2879 5.61531L83.5702 6.39295L83.576 6.91239L82.4237 6.33611L81.9914 5.75923Z" fill="#A67C52"/>
</g>
<defs>
<clipPath id="clip0_2_32">
<rect width="169" height="26" fill="white"/>
</clipPath>
</defs>
</svg>
